solid Figura1Eval1.3
facet normal 0.0 0.0 -1.0
  outer loop
    vertex 60.0 60.0 0.0
    vertex 0.0 0.0 0.0
    vertex 0.0 60.0 0.0
  endloop
endfacet
facet normal 0.0 0.0 -1.0
  outer loop
    vertex 0.0 0.0 0.0
    vertex 60.0 60.0 0.0
    vertex 60.0 0.0 0.0
  endloop
endfacet
facet normal -1.0 0.0 0.0
  outer loop
    vertex 0.0 60.0 60.0
    vertex 0.0 0.0 0.0
    vertex 0.0 0.0 60.0
  endloop
endfacet
facet normal -1.0 0.0 0.0
  outer loop
    vertex 0.0 0.0 0.0
    vertex 0.0 60.0 60.0
    vertex 0.0 60.0 0.0
  endloop
endfacet
facet normal -0.0 1.0 -0.0
  outer loop
    vertex 0.0 60.0 60.0
    vertex 60.0 60.0 0.0
    vertex 0.0 60.0 0.0
  endloop
endfacet
facet normal -0.0 1.0 -0.0
  outer loop
    vertex 60.0 60.0 0.0
    vertex 0.0 60.0 60.0
    vertex 30.0 60.0 30.0
  endloop
endfacet
facet normal -0.0 1.0 -0.0
  outer loop
    vertex 30.0 60.0 30.0
    vertex 0.0 60.0 60.0
    vertex 30.0 60.0 60.0
  endloop
endfacet
facet normal 0.7071067811865476 -0.0 0.7071067811865476
  outer loop
    vertex 60.0 60.0 0.0
    vertex 30.0 0.0 30.0
    vertex 60.0 0.0 0.0
  endloop
endfacet
facet normal 0.7071067811865476 -0.0 0.7071067811865476
  outer loop
    vertex 30.0 0.0 30.0
    vertex 60.0 60.0 0.0
    vertex 30.0 60.0 30.0
  endloop
endfacet
facet normal -0.0 -0.0 1.0
  outer loop
    vertex 30.0 0.0 60.0
    vertex 0.0 60.0 60.0
    vertex 0.0 0.0 60.0
  endloop
endfacet
facet normal -0.0 -0.0 1.0
  outer loop
    vertex 0.0 60.0 60.0
    vertex 30.0 0.0 60.0
    vertex 30.0 60.0 60.0
  endloop
endfacet
facet normal 0.0 -1.0 0.0
  outer loop
    vertex 30.0 0.0 30.0
    vertex 0.0 0.0 0.0
    vertex 60.0 0.0 0.0
  endloop
endfacet
facet normal 0.0 -1.0 0.0
  outer loop
    vertex 0.0 0.0 0.0
    vertex 30.0 0.0 30.0
    vertex 0.0 0.0 60.0
  endloop
endfacet
facet normal 0.0 -1.0 0.0
  outer loop
    vertex 0.0 0.0 60.0
    vertex 30.0 0.0 30.0
    vertex 30.0 0.0 60.0
  endloop
endfacet
facet normal 1.0 -0.0 -0.0
  outer loop
    vertex 30.0 60.0 30.0
    vertex 30.0 0.0 60.0
    vertex 30.0 0.0 30.0
  endloop
endfacet
facet normal 1.0 -0.0 -0.0
  outer loop
    vertex 30.0 0.0 60.0
    vertex 30.0 60.0 30.0
    vertex 30.0 60.0 60.0
  endloop
endfacet
endsolid Figura1Eval1.3
