solid Figura1Eval1.2
facet normal 0.0 0.0 -1.0
  outer loop
    vertex 50.0 50.0 0.0
    vertex 0.0 0.0 0.0
    vertex 0.0 50.0 0.0
  endloop
endfacet
facet normal 0.0 0.0 -1.0
  outer loop
    vertex 0.0 0.0 0.0
    vertex 50.0 50.0 0.0
    vertex 50.0 0.0 0.0
  endloop
endfacet
facet normal -0.0 -0.0 1.0
  outer loop
    vertex 50.0 0.0 10.0
    vertex 0.0 19.999999999999996 10.0
    vertex 0.0 0.0 10.0
  endloop
endfacet
facet normal -0.0 -0.0 1.0
  outer loop
    vertex 0.0 19.999999999999996 10.0
    vertex 50.0 0.0 10.0
    vertex 30.0 19.999999999999996 10.0
  endloop
endfacet
facet normal -0.0 -0.0 1.0
  outer loop
    vertex 30.0 19.999999999999996 10.0
    vertex 50.0 0.0 10.0
    vertex 30.0 50.0 10.0
  endloop
endfacet
facet normal -0.0 -0.0 1.0
  outer loop
    vertex 30.0 50.0 10.0
    vertex 50.0 0.0 10.0
    vertex 50.0 50.0 10.0
  endloop
endfacet
facet normal -0.0 1.0 -0.0
  outer loop
    vertex 0.0 50.0 0.0
    vertex 30.0 50.0 10.0
    vertex 50.0 50.0 0.0
  endloop
endfacet
facet normal -0.0 1.0 -0.0
  outer loop
    vertex 30.0 50.0 10.0
    vertex 0.0 50.0 0.0
    vertex 0.0 50.0 50.0
  endloop
endfacet
facet normal -0.0 1.0 -0.0
  outer loop
    vertex 50.0 50.0 10.0
    vertex 50.0 50.0 0.0
    vertex 30.0 50.0 10.0
  endloop
endfacet
facet normal 1.0 0.0 0.0
  outer loop
    vertex 50.0 50.0 0.0
    vertex 50.0 0.0 10.0
    vertex 50.0 0.0 0.0
  endloop
endfacet
facet normal 1.0 0.0 0.0
  outer loop
    vertex 50.0 0.0 10.0
    vertex 50.0 50.0 0.0
    vertex 50.0 50.0 10.0
  endloop
endfacet
facet normal -0.0 -1.0 -0.0
  outer loop
    vertex 50.0 0.0 10.0
    vertex 0.0 0.0 0.0
    vertex 50.0 0.0 0.0
  endloop
endfacet
facet normal -0.0 -1.0 -0.0
  outer loop
    vertex 0.0 0.0 0.0
    vertex 50.0 0.0 10.0
    vertex 0.0 0.0 10.0
  endloop
endfacet
facet normal -1.0 0.0 0.0
  outer loop
    vertex 0.0 50.0 50.0
    vertex 0.0 19.999999999999996 10.0
    vertex 0.0 19.999999999999996 50.0
  endloop
endfacet
facet normal -1.0 0.0 0.0
  outer loop
    vertex 0.0 19.999999999999996 10.0
    vertex 0.0 0.0 0.0
    vertex 0.0 0.0 10.0
  endloop
endfacet
facet normal -1.0 0.0 0.0
  outer loop
    vertex 0.0 0.0 0.0
    vertex 0.0 19.999999999999996 10.0
    vertex 0.0 50.0 0.0
  endloop
endfacet
facet normal -1.0 0.0 0.0
  outer loop
    vertex 0.0 50.0 0.0
    vertex 0.0 19.999999999999996 10.0
    vertex 0.0 50.0 50.0
  endloop
endfacet
facet normal 0.8 -0.0 0.5999999999999999
  outer loop
    vertex 30.0 50.0 10.0
    vertex 0.0 19.999999999999996 50.0
    vertex 30.0 19.999999999999996 10.0
  endloop
endfacet
facet normal 0.8 -0.0 0.5999999999999999
  outer loop
    vertex 0.0 19.999999999999996 50.0
    vertex 30.0 50.0 10.0
    vertex 0.0 50.0 50.0
  endloop
endfacet
facet normal 0.0 -1.0 0.0
  outer loop
    vertex 0.0 19.999999999999996 50.0
    vertex 0.0 19.999999999999996 10.0
    vertex 30.0 19.999999999999996 10.0
  endloop
endfacet
endsolid Figura1Eval1.2
