solid Figura1Eval1.1
facet normal 0.0 0.0 -1.0
  outer loop
    vertex 15.0 35.0 0.0
    vertex 0.0 0.0 0.0
    vertex 0.0 35.0 0.0
  endloop
endfacet
facet normal 0.0 0.0 -1.0
  outer loop
    vertex 0.0 0.0 0.0
    vertex 15.0 35.0 0.0
    vertex 15.0 0.0 0.0
  endloop
endfacet
facet normal -0.0 -0.0 1.0
  outer loop
    vertex 15.0 25.0 20.0
    vertex 0.0 35.0 20.0
    vertex 0.0 25.0 20.0
  endloop
endfacet
facet normal -0.0 -0.0 1.0
  outer loop
    vertex 0.0 35.0 20.0
    vertex 15.0 25.0 20.0
    vertex 15.0 35.0 20.0
  endloop
endfacet
facet normal -0.0 1.0 0.0
  outer loop
    vertex 0.0 35.0 20.0
    vertex 15.0 35.0 0.0
    vertex 0.0 35.0 0.0
  endloop
endfacet
facet normal -0.0 1.0 0.0
  outer loop
    vertex 15.0 35.0 0.0
    vertex 0.0 35.0 20.0
    vertex 15.0 35.0 20.0
  endloop
endfacet
facet normal 1.0 -0.0 -0.0
  outer loop
    vertex 15.0 0.0 0.0
    vertex 15.0 10.0 5.0
    vertex 15.0 0.0 20.0
  endloop
endfacet
facet normal 1.0 -0.0 -0.0
  outer loop
    vertex 15.0 10.0 5.0
    vertex 15.0 0.0 0.0
    vertex 15.0 35.0 0.0
  endloop
endfacet
facet normal 1.0 -0.0 -0.0
  outer loop
    vertex 15.0 10.0 5.0
    vertex 15.0 35.0 0.0
    vertex 15.0 25.0 5.0
  endloop
endfacet
facet normal 1.0 -0.0 -0.0
  outer loop
    vertex 15.0 25.0 5.0
    vertex 15.0 35.0 0.0
    vertex 15.0 25.0 20.0
  endloop
endfacet
facet normal 1.0 -0.0 -0.0
  outer loop
    vertex 15.0 25.0 20.0
    vertex 15.0 35.0 0.0
    vertex 15.0 35.0 20.0
  endloop
endfacet
facet normal 1.0 -0.0 -0.0
  outer loop
    vertex 15.0 10.0 20.0
    vertex 15.0 0.0 20.0
    vertex 15.0 10.0 5.0
  endloop
endfacet
facet normal -0.0 -1.0 -0.0
  outer loop
    vertex 15.0 0.0 20.0
    vertex 0.0 0.0 0.0
    vertex 15.0 0.0 0.0
  endloop
endfacet
facet normal -0.0 -1.0 -0.0
  outer loop
    vertex 0.0 0.0 0.0
    vertex 15.0 0.0 20.0
    vertex 0.0 0.0 20.0
  endloop
endfacet
facet normal -1.0 0.0 0.0
  outer loop
    vertex 0.0 10.0 20.0
    vertex 0.0 0.0 0.0
    vertex 0.0 0.0 20.0
  endloop
endfacet
facet normal -1.0 0.0 0.0
  outer loop
    vertex 0.0 0.0 0.0
    vertex 0.0 10.0 20.0
    vertex 0.0 35.0 0.0
  endloop
endfacet
facet normal -1.0 0.0 0.0
  outer loop
    vertex 0.0 35.0 0.0
    vertex 0.0 10.0 20.0
    vertex 0.0 25.0 20.0
  endloop
endfacet
facet normal -1.0 0.0 0.0
  outer loop
    vertex 0.0 35.0 0.0
    vertex 0.0 25.0 20.0
    vertex 0.0 35.0 20.0
  endloop
endfacet
facet normal -0.0 -0.0 1.0
  outer loop
    vertex 15.0 0.0 20.0
    vertex 0.0 10.0 20.0
    vertex 0.0 0.0 20.0
  endloop
endfacet
facet normal -0.0 -0.0 1.0
  outer loop
    vertex 0.0 10.0 20.0
    vertex 15.0 0.0 20.0
    vertex 15.0 10.0 20.0
  endloop
endfacet
facet normal 0.0 -1.0 0.0
  outer loop
    vertex 0.0 25.0 20.0
    vertex 15.0 25.0 5.0
    vertex 15.0 25.0 20.0
  endloop
endfacet
facet normal -0.0 1.0 -0.0
  outer loop
    vertex 15.0 10.0 20.0
    vertex 15.0 10.0 5.0
    vertex 0.0 10.0 20.0
  endloop
endfacet
facet normal 0.7071067811865476 -0.0 0.7071067811865476
  outer loop
    vertex 15.0 25.0 5.0
    vertex 0.0 10.0 20.0
    vertex 15.0 10.0 5.0
  endloop
endfacet
facet normal 0.7071067811865476 -0.0 0.7071067811865476
  outer loop
    vertex 0.0 10.0 20.0
    vertex 15.0 25.0 5.0
    vertex 0.0 25.0 20.0
  endloop
endfacet
endsolid Figura1Eval1.1
